<svg xmlns="http://www.w3.org/2000/svg" width="512pt" height="512pt" viewBox="0 0 512 512">
  <path d="M97.703 279.988h15v128.586h-15zm0 0M290.996 333.602v66.812l18.192 18.191h151.796V315.41H309.188zm154.988-3.192v73.195H315.398l-9.402-9.402v-54.387l9.402-9.406zm0 0"/>
  <path d="M420.984 347.91h15v38.195h-15zm0 0M351.68 399.074c17.683 0 32.066-14.383 32.066-32.066 0-17.68-14.383-32.067-32.066-32.067-17.68 0-32.063 14.387-32.063 32.067-.004 17.683 14.383 32.066 32.063 32.066zm0-49.133c9.41 0 17.066 7.657 17.066 17.067s-7.656 17.066-17.066 17.066-17.067-7.656-17.067-17.066 7.657-17.067 17.067-17.067zm0 0"/>
  <path d="M492.598 281.078c-8.04 0-14.953 4.918-17.891 11.899h-10.074l-22.047-22.043v-7.829h18.262c2.937 6.985 9.851 11.899 17.89 11.899 10.696 0 19.395-8.703 19.395-19.399 0-10.695-8.703-19.398-19.395-19.398-8.039 0-14.953 4.918-17.89 11.898h-18.262v-7.828l22.047-22.043h10.074c2.938 6.985 9.852 11.899 17.89 11.899 10.696 0 19.395-8.703 19.395-19.399s-8.699-19.398-19.394-19.398c-8.04 0-14.95 4.914-17.891 11.898h-16.289l-15.832 15.832v-45.668h-47.031v15h32.035v13.364H113.566v15h314.02v13.367H105.203c-11.504 0-20.863-9.36-20.863-20.867 0-11.504 9.36-20.864 20.863-20.864h38.781v-15h-38.78c-19.774 0-35.864 16.09-35.864 35.864v180.027l-15.805-15.805H37.262c-2.938-6.976-9.844-11.886-17.875-11.886C8.699 361.598 0 370.293 0 380.984c0 10.688 8.7 19.383 19.387 19.383 8.031 0 14.937-4.91 17.875-11.883h10.062L69.34 410.5v7.813H51.11c-2.938-6.977-9.844-11.887-17.876-11.887-10.691 0-19.386 8.695-19.386 19.387 0 10.687 8.695 19.382 19.386 19.382 8.032 0 14.938-4.91 17.875-11.882h18.23v7.808l-22.019 22.02H37.262c-2.938-6.977-9.844-11.887-17.875-11.887C8.695 451.254 0 459.949 0 470.64c0 10.687 8.695 19.382 19.387 19.382 8.031 0 14.937-4.906 17.875-11.882h16.273l15.805-15.809v13.805C69.34 495.91 85.43 512 105.203 512h337.383v-82.895h-15V497H105.203c-11.504 0-20.863-9.36-20.863-20.863V238.418c.02.016.039.027.058.043l.13.094c.07.047.136.093.202.14.04.028.082.059.122.082.078.059.16.114.242.168l.113.078.281.188c.04.023.078.05.114.074l.23.149.11.07.242.152a9.658 9.658 0 0 0 .457.285c.105.063.21.125.312.188.035.02.07.043.106.062.082.047.164.094.246.145l.105.059.285.164c.02.007.04.023.059.03.121.067.238.134.36.2.011.008.019.012.03.016.106.058.211.117.317.172.031.015.062.03.094.05l.289.149.07.035c.242.125.488.25.738.371l.051.023c.106.051.211.102.32.153l.075.035c.105.047.215.098.32.144l.055.024a44.439 44.439 0 0 0 .824.363c.105.047.215.09.324.133.024.012.043.02.067.027.117.047.234.098.351.145a.27.27 0 0 1 .031.012l.403.152c0 .004 0 .004.004.004l.375.14c.023.008.05.02.074.028l.32.117c.027.008.055.016.078.027l.793.27.043.012c.113.035.23.074.348.109a35.31 35.31 0 0 0 .422.133c.02.004.039.012.058.015.27.082.535.157.805.23.027.009.05.013.074.02.113.032.227.063.34.09.027.008.05.012.074.02l.375.094c.012 0 .02.003.031.007.141.032.278.067.418.098.012.004.02.008.032.008l.367.082c.035.008.066.015.101.02l.317.07a30.287 30.287 0 0 0 .996.191c.113.02.223.035.332.055.035.008.074.012.11.02.109.019.214.034.324.05a28.155 28.155 0 0 0 .922.133l.105.012c.105.011.207.027.312.039l.125.011c.102.016.207.024.313.036l.105.011c.137.016.278.028.414.04.02.003.036.003.055.003.121.012.242.024.363.032.04.003.079.003.118.007l.316.024c.035.004.074.004.113.008.121.007.243.011.364.02.02 0 .039.003.058.003.14.008.281.012.422.02.035 0 .074 0 .11.003.105.004.21.004.312.008.047 0 .098.004.144.004.094.004.192.004.29.008h.136c.14.004.281.004.418.004h322.383v59.781h15v-12.762l15.832 15.829h16.29c2.937 6.984 9.85 11.898 17.89 11.898 10.695 0 19.394-8.703 19.394-19.398.004-10.696-8.695-19.399-19.39-19.399zm-13.864-29.871c2.426 0 4.399 1.973 4.399 4.398s-1.973 4.399-4.399 4.399a4.402 4.402 0 0 1-4.394-4.399 4.402 4.402 0 0 1 4.394-4.398zm13.864-44.871c2.422 0 4.394 1.973 4.394 4.398s-1.972 4.399-4.394 4.399a4.403 4.403 0 0 1-4.399-4.399 4.405 4.405 0 0 1 4.399-4.398zM19.387 385.367c-2.418 0-4.387-1.965-4.387-4.383s1.969-4.386 4.387-4.386 4.386 1.968 4.386 4.386-1.968 4.383-4.386 4.383zm13.847 44.828c-2.418 0-4.386-1.965-4.386-4.382s1.968-4.387 4.386-4.387 4.387 1.969 4.387 4.386-1.969 4.383-4.387 4.383zm-13.847 44.832c-2.418 0-4.387-1.968-4.387-4.386s1.969-4.387 4.387-4.387 4.386 1.969 4.386 4.387-1.968 4.386-4.386 4.386zm473.21-170.152a4.403 4.403 0 0 1-4.398-4.398 4.402 4.402 0 0 1 4.399-4.395 4.401 4.401 0 0 1 4.394 4.395 4.402 4.402 0 0 1-4.394 4.398zm0 0M217.621 71.336c-15.832 15.832-23.539 37.73-21.144 60.07l14.914-1.597c-1.91-17.813 4.226-35.258 16.836-47.868zm0 0"/>
  <path d="M306.793 88.73l-12.04-12.039h-3.71V65.516h-15V76.69H264.77V65.516h-15V76.69h-17.172v15h10.164v63.582h-10.164v15h17.172v11.176h15v-11.176h11.273v11.176h15v-11.176h3.71l12.04-12.039v-30.21l-4.54-4.54 4.54-4.543zm-15 63.29l-3.254 3.253h-30.777V130.98h30.777l3.254 3.254zm0-39.293l-3.254 3.253h-30.777V91.691h30.777l3.254 3.254zm0 0"/>
  <path d="M327.805 183.86l10.394 10.812c19.551-18.797 30.317-44.078 30.317-71.192 0-54.449-44.297-98.746-98.746-98.746s-98.747 44.297-98.747 98.746c0 27.114 10.766 52.395 30.317 71.192l10.394-10.813c-16.578-15.941-25.71-37.382-25.71-60.375 0-46.18 37.57-83.75 83.746-83.75 46.18 0 83.75 37.57 83.75 83.75-.004 22.993-9.133 44.434-25.715 60.375zm0 0"/>
  <path d="M180.41 185.004c-12.512-18.129-19.12-39.406-19.12-61.524C161.29 63.664 209.952 15 269.77 15c59.816 0 108.48 48.664 108.48 108.48 0 22.118-6.613 43.395-19.121 61.524l12.348 8.52c14.246-20.649 21.773-44.868 21.773-70.04C393.25 55.394 337.855 0 269.77 0c-68.09 0-123.48 55.395-123.48 123.48 0 25.176 7.526 49.395 21.773 70.043zm0 0M414.238 268.125H308.11v-15h106.13zm-116.129 0h-15v-15h15zm-25 0h-15v-15h15zm0 0"/>
  <path d="M321.918 175.629l-10.61-10.606c11.079-11.078 17.176-25.828 17.176-41.539 0-.601-.007-1.199-.023-1.796l14.992-.458c.024.75.031 1.5.031 2.254 0 19.72-7.66 38.235-21.566 52.145zm5.61-62.762a58.82 58.82 0 0 0-3.837-12.707l13.778-5.933a73.997 73.997 0 0 1 4.816 15.953zm-7.946-20.543a58.62 58.62 0 0 0-8.273-10.383l10.605-10.605a73.608 73.608 0 0 1 10.383 13.035zm0 0"/>
</svg>
